<?xml version="1.0" standalone="no"?>
<!DOCTYPE svg PUBLIC "-//W3C//DTD SVG 20010904//EN"
 "http://www.w3.org/TR/2001/REC-SVG-20010904/DTD/svg10.dtd">
<svg version="1.0" xmlns="http://www.w3.org/2000/svg"
 width="260.000000pt" height="260.000000pt" viewBox="0 0 260.000000 260.000000"
 preserveAspectRatio="xMidYMid meet">
<metadata>
Created by potrace 1.14, written by Peter Selinger 2001-2017
</metadata>
<g transform="translate(0.000000,260.000000) scale(0.100000,-0.100000)"
fill="#000000" stroke="none">
<path d="M0 1300 l0 -1300 1099 0 c870 0 1100 3 1104 13 4 10 6 10 6 0 1 -10
47 -13 196 -13 l195 0 -1 302 c-1 241 -4 307 -15 323 -16 22 -19 59 -5 50 5
-3 12 -1 16 5 3 5 -3 10 -14 10 -27 0 -27 16 -1 23 11 3 20 13 19 24 0 10 -3
13 -6 6 -2 -7 -8 -13 -13 -13 -8 0 -2 28 15 75 7 16 6 18 -6 8 -18 -18 -39
-16 -39 2 0 20 -39 20 -46 0 -9 -21 -23 -19 -21 4 0 11 4 19 7 18 3 -1 5 0 5
3 0 3 10 20 23 37 28 39 26 40 -18 8 -32 -24 -60 -25 -42 -2 15 20 23 49 11
41 -20 -12 -29 19 -13 44 15 22 14 23 -5 13 -25 -14 -41 -14 -21 0 10 7 11 12
4 15 -7 3 -10 14 -7 24 6 21 -4 24 -31 14 -13 -5 -14 -9 -5 -20 7 -8 10 -16 8
-18 -8 -7 -69 6 -69 15 0 5 4 9 8 9 15 0 56 40 48 47 -3 4 -12 1 -18 -5 -21
-21 -30 -13 -23 18 4 19 3 30 -4 30 -6 0 -11 -5 -11 -11 0 -5 -5 -7 -11 -3 -6
3 -7 9 -3 13 5 3 9 18 9 33 1 24 -1 26 -15 13 -9 -8 -23 -15 -31 -15 -8 0 -20
-5 -26 -11 -7 -7 -13 -7 -17 -1 -3 6 -2 13 4 17 5 3 10 13 10 21 0 13 -8 14
-39 9 -39 -6 -40 -6 -39 25 1 22 7 34 22 40 17 7 18 9 4 9 -10 1 -18 6 -18 13
0 9 -3 9 -12 0 -17 -17 -33 -15 -19 2 9 11 8 15 -4 20 -21 8 -9 26 18 27 17 1
18 2 5 6 -10 2 -18 8 -18 13 0 5 -7 7 -15 4 -8 -4 -15 -14 -15 -25 0 -10 -9
-23 -21 -29 -20 -11 -20 -12 -3 -31 9 -10 23 -19 30 -19 8 0 11 -6 8 -15 -4
-8 -1 -15 5 -15 6 0 11 -5 11 -10 0 -6 -3 -9 -7 -9 -5 1 -10 0 -13 -1 -22 -8
-42 -6 -46 5 -3 7 -13 11 -23 8 -11 -3 -21 2 -25 12 -6 16 -8 16 -31 1 -34
-22 -52 -21 -32 2 10 10 17 24 17 31 0 6 8 11 17 9 10 -2 19 5 21 15 3 17 1
17 -37 -3 -45 -22 -81 -82 -54 -88 17 -4 17 -22 1 -23 -13 0 -88 -108 -88
-126 0 -5 -14 -17 -30 -26 -16 -10 -30 -24 -31 -30 0 -7 -18 -27 -41 -44 -39
-32 -66 -43 -53 -23 13 21 -14 9 -32 -14 -27 -37 -46 -37 -47 -1 -1 26 -5 29
-33 31 -18 1 -33 -2 -33 -7 0 -8 42 -35 48 -31 1 1 2 0 2 -3 0 -3 0 -8 0 -12
0 -4 -5 -2 -12 5 -7 7 -19 12 -28 11 -9 0 -6 -4 8 -9 27 -11 30 -34 3 -25 -13
4 -23 0 -30 -12 -7 -13 -23 -18 -63 -20 -29 0 -53 -2 -53 -3 0 -2 -21 -4 -47
-5 -43 -3 -48 0 -59 24 -7 15 -27 37 -46 49 -40 27 -43 20 -6 -13 24 -21 25
-24 9 -25 -15 0 -16 -3 -6 -15 10 -13 9 -15 -8 -15 -28 0 -25 -38 5 -66 24
-22 30 -44 13 -44 -6 0 -13 7 -16 15 -4 8 -11 12 -17 8 -6 -4 -7 -1 -3 6 5 7
0 19 -10 27 -14 11 -15 17 -7 20 10 4 9 12 -2 35 -17 32 -28 39 -18 12 6 -16
5 -16 -10 -4 -15 12 -17 12 -12 -2 7 -17 -10 -33 -20 -17 -9 15 -25 12 -25 -5
0 -8 7 -15 15 -15 21 0 31 -30 14 -41 -12 -8 -11 -12 4 -23 15 -12 16 -15 2
-26 -13 -11 -14 -10 -10 2 7 18 -20 44 -30 28 -3 -5 -1 -10 4 -10 6 0 11 -5
11 -10 0 -6 -8 -5 -20 2 -11 7 -20 20 -20 29 0 20 -43 66 -48 51 -5 -17 -22
-15 -22 3 0 8 7 15 15 15 8 0 15 5 15 12 0 9 3 9 12 0 9 -9 14 -7 24 6 12 15
12 15 7 -6 -3 -13 -1 -22 6 -22 7 0 10 4 7 9 -8 13 21 34 36 25 10 -5 10 -4 2
5 -15 17 -97 24 -87 8 3 -7 -3 -4 -14 5 -11 10 -28 18 -39 18 -14 0 -16 3 -6
9 7 4 25 6 39 3 24 -4 25 -3 19 26 -4 16 -3 33 2 36 5 3 7 16 5 29 -3 13 2 50
11 82 l15 60 -27 23 -27 23 26 -16 c24 -14 27 -14 33 0 11 31 6 35 -34 29 -38
-6 -51 2 -32 20 4 4 7 25 7 46 0 33 -3 39 -20 37 -11 -1 -20 3 -20 10 0 7 -9
19 -20 27 -17 14 -18 17 -5 26 11 7 18 5 27 -6 10 -14 13 -13 22 4 9 17 6 20
-28 26 -55 8 -97 32 -78 43 14 8 30 53 18 53 -3 0 -23 -14 -44 -31 -20 -17
-42 -27 -48 -24 -6 4 -26 -9 -46 -30 -20 -21 -40 -34 -49 -31 -11 4 -12 2 -1
-15 11 -18 13 -18 25 -2 16 22 42 26 49 7 4 -11 9 -12 19 -3 11 9 14 8 14 -5
0 -9 7 -16 15 -16 22 0 18 -17 -5 -23 -15 -4 -20 -14 -20 -40 0 -37 -17 -51
-47 -40 -11 4 -14 3 -9 -5 4 -7 5 -12 2 -12 -3 0 -10 10 -17 21 -8 15 -8 19 0
15 19 -12 12 10 -9 29 -11 10 -20 24 -20 30 0 7 -9 15 -20 18 -17 4 -20 2 -15
-13 7 -21 -23 -35 -55 -25 -11 4 -20 2 -20 -4 0 -6 5 -11 10 -11 6 0 10 -5 10
-11 0 -6 -7 -9 -14 -6 -10 4 -13 1 -10 -7 8 -22 -9 -25 -28 -5 -15 16 -15 20
-3 33 17 17 20 40 4 31 -7 -5 -8 5 -3 32 7 43 24 68 24 38 0 -17 2 -18 10 -5
14 21 12 30 -6 30 -8 0 -12 5 -9 10 4 6 10 8 14 5 5 -2 6 6 4 19 -7 33 35 90
54 75 9 -8 13 -8 13 -1 0 6 -6 13 -12 15 -8 3 1 19 26 43 l39 38 19 -27 c11
-15 24 -27 30 -27 7 0 7 4 1 13 -24 30 -22 57 7 77 15 11 33 20 39 20 6 0 11
5 11 11 0 6 -7 9 -15 5 -8 -3 -25 -1 -37 4 -22 8 -22 9 5 9 29 1 34 10 15 30
-11 10 -10 11 3 6 15 -6 36 21 26 32 -7 6 -57 -19 -57 -29 0 -5 -4 -6 -10 -3
-16 10 -12 36 8 51 16 12 15 13 -8 14 -14 0 -20 4 -15 8 6 4 10 13 9 20 -1 6
-2 21 -3 32 0 11 -8 20 -16 20 -16 0 -20 -12 -8 -24 10 -10 11 -66 1 -72 -4
-3 -8 0 -8 5 0 6 -5 11 -11 11 -6 0 -1 -13 10 -29 23 -32 27 -51 11 -51 -5 0
-10 -7 -10 -15 0 -10 -10 -15 -28 -15 -15 0 -32 -4 -38 -10 -6 -6 -15 -6 -24
0 -12 8 -13 11 -1 19 8 5 9 11 3 15 -5 3 -7 18 -4 32 3 19 1 25 -6 20 -8 -5
-10 -2 -6 8 3 9 10 16 15 16 5 0 9 7 9 15 0 8 7 15 15 15 8 0 15 4 15 9 0 5
-9 7 -20 4 -11 -3 -20 0 -20 6 0 6 -8 11 -18 11 -10 0 -27 6 -37 14 -19 14
-19 15 8 40 27 25 35 46 18 46 -6 0 -13 -5 -16 -10 -4 -6 -14 -10 -23 -8 -10
1 -22 -1 -29 -5 -9 -6 -9 1 1 25 8 18 17 44 21 58 7 22 6 23 -8 12 -9 -8 -13
-20 -10 -28 3 -8 0 -14 -6 -14 -6 0 -11 5 -11 11 0 5 -4 8 -9 5 -5 -4 -16 -4
-24 0 -19 7 -10 44 10 44 8 0 12 4 9 8 -3 5 12 17 32 27 23 11 32 20 23 23 -7
2 -16 1 -20 -4 -7 -10 -59 -16 -78 -9 -7 2 -2 15 15 33 15 17 30 25 33 20 4
-7 9 -6 13 1 8 12 3 13 -59 16 -70 4 -75 5 -75 15 0 6 12 8 28 4 21 -4 24 -3
12 5 -12 9 -13 11 -1 11 8 0 12 3 9 6 -3 3 12 23 35 44 45 44 46 58 1 36 -34
-19 -37 -16 -24 18 8 21 7 26 -3 20 -6 -4 -2 4 11 18 12 13 22 27 22 31 0 15
-22 6 -45 -19 -18 -19 -25 -22 -25 -12 0 9 -14 29 -31 46 -31 31 -33 39 -13
87 8 19 7 19 -10 3 -9 -10 -24 -18 -32 -18 -12 0 -11 6 6 30 12 17 26 28 31
25 5 -4 9 4 9 16 0 21 -1 21 -25 -5 -44 -47 -52 -25 -16 43 7 13 5 20 -10 29
-11 7 -24 10 -28 7 -12 -7 -34 22 -26 34 4 7 -48 10 -155 10 l-160 0 0 -1299z
m320 1244 c0 -8 -5 -12 -10 -9 -6 4 -8 11 -5 16 9 14 15 11 15 -7z m50 -14 c0
-5 -4 -10 -9 -10 -5 0 -17 -3 -27 -7 -16 -6 -17 -5 -4 10 17 18 40 22 40 7z
m75 -248 c-8 -8 -25 10 -19 20 4 6 9 5 15 -3 4 -7 6 -15 4 -17z m40 -32 c-3
-5 -11 -10 -16 -10 -6 0 -7 5 -4 10 3 6 11 10 16 10 6 0 7 -4 4 -10z m-10 -40
c3 -5 1 -10 -4 -10 -6 0 -11 5 -11 10 0 6 2 10 4 10 3 0 8 -4 11 -10z m-5
-116 c0 -2 -7 -4 -15 -4 -8 0 -15 4 -15 10 0 5 7 7 15 4 8 -4 15 -8 15 -10z
m20 -40 c0 -8 -4 -12 -10 -9 -5 3 -10 10 -10 16 0 5 5 9 10 9 6 0 10 -7 10
-16z m-41 -26 c-7 -13 -7 -23 0 -31 7 -9 5 -13 -8 -13 -16 0 -17 4 -10 25 6
13 8 30 5 37 -3 8 0 11 9 7 11 -4 12 -10 4 -25z m216 -357 c3 -5 1 -12 -5 -16
-5 -3 -10 1 -10 9 0 18 6 21 15 7z m79 -62 c-6 -11 -24 -2 -24 11 0 5 7 7 15
4 8 -4 12 -10 9 -15z m-34 -4 c0 -8 -7 -15 -15 -15 -8 0 -15 -5 -15 -11 0 -8
-5 -7 -15 1 -14 11 -13 14 7 25 31 18 38 18 38 0z m150 -225 c0 -5 -4 -10 -10
-10 -5 0 -10 5 -10 10 0 6 5 10 10 10 6 0 10 -4 10 -10z m17 -22 c-3 -8 -6 -5
-6 6 -1 11 2 17 5 13 3 -3 4 -12 1 -19z m91 -54 c30 -21 21 -31 -22 -26 -45 5
-48 35 -6 41 3 1 16 -6 28 -15z m52 -74 c-20 -13 -33 -13 -25 0 3 6 14 10 23
10 15 0 15 -2 2 -10z m-270 -21 c0 -14 -17 -10 -23 5 -4 10 -1 13 9 9 7 -3 14
-9 14 -14z m-100 -57 c21 3 30 0 33 -14 4 -12 13 -17 36 -15 31 2 39 11 21 22
-5 3 -10 14 -9 23 0 11 3 12 6 5 2 -7 11 -13 19 -13 8 0 13 -5 12 -11 -5 -21
20 -20 27 0 6 21 25 29 25 11 0 -5 3 -9 8 -9 23 4 30 -5 34 -41 4 -47 -12 -59
-48 -35 -13 9 -24 11 -24 6 0 -5 6 -11 13 -14 9 -3 9 -8 -2 -21 -8 -9 -10 -20
-6 -24 4 -4 10 -1 12 6 7 17 23 15 23 -4 0 -11 8 -15 31 -12 25 2 33 -2 47
-27 9 -16 23 -36 30 -44 11 -11 11 -15 1 -22 -7 -4 -17 -5 -21 -3 -4 3 -5 -3
-2 -13 4 -14 1 -12 -15 6 -13 15 -21 18 -22 10 0 -11 -2 -11 -6 -1 -8 19 -22
14 -16 -7 6 -25 39 -41 90 -44 24 -1 48 -9 55 -16 8 -9 8 -11 1 -7 -17 9 -45
-5 -39 -20 3 -7 1 -16 -4 -19 -6 -4 -10 -2 -10 4 0 6 -7 8 -15 5 -9 -4 -15 0
-15 7 0 11 -2 11 -10 -1 -7 -12 -11 -12 -28 3 -11 10 -26 17 -33 15 -8 -2 -13
4 -13 15 2 20 -1 21 -27 7 -16 -9 -19 -7 -19 12 0 17 -3 19 -9 9 -13 -20 -33
-3 -25 21 5 18 3 20 -20 16 -44 -9 -29 9 19 22 25 7 45 17 45 22 0 5 -8 4 -18
-1 -13 -7 -23 -6 -30 1 -9 9 -12 9 -12 0 0 -7 -4 -12 -10 -12 -14 0 -12 38 2
42 8 3 7 11 -5 28 l-16 23 -12 -26 c-9 -19 -16 -24 -24 -17 -7 5 -15 7 -18 3
-4 -3 -7 3 -7 15 0 12 -4 22 -10 22 -5 0 -10 4 -10 10 0 5 14 8 32 6 44 -5 63
15 36 38 -19 17 -19 16 -13 -3 5 -17 2 -21 -18 -21 -14 0 -28 7 -31 16 -3 8
-9 13 -14 10 -4 -2 -8 4 -8 14 0 18 19 20 49 5 6 -4 3 1 -7 9 -11 9 -25 16
-32 16 -14 0 -23 29 -15 50 4 9 7 4 9 -14 3 -25 7 -28 32 -24z m1365 8 c-3 -5
-10 -10 -16 -10 -5 0 -9 5 -9 10 0 6 7 10 16 10 8 0 12 -4 9 -10z m215 2 c0
-5 -9 -17 -20 -27 -11 -10 -20 -13 -20 -7 0 7 5 12 10 12 6 0 10 7 10 15 0 8
5 15 10 15 6 0 10 -4 10 -8z m-80 -18 c0 -8 -5 -12 -10 -9 -6 4 -8 11 -5 16 9
14 15 11 15 -7z m124 -50 c4 -9 4 -19 1 -22 -3 -3 -5 0 -5 6 0 6 -9 9 -19 7
-11 -2 -22 3 -25 11 -4 10 2 14 18 14 13 0 27 -7 30 -16z m-1184 2 c0 -3 -4
-8 -10 -11 -5 -3 -10 -1 -10 4 0 6 5 11 10 11 6 0 10 -2 10 -4z m1150 -36 c0
-8 -52 -21 -59 -14 -2 2 1 10 8 18 12 14 51 11 51 -4z m77 -42 c-3 -7 -5 -2
-5 12 0 14 2 19 5 13 2 -7 2 -19 0 -25z m-1440 16 c-3 -3 -12 -4 -19 -1 -8 3
-5 6 6 6 11 1 17 -2 13 -5z m1389 -25 c4 -8 9 -7 15 2 7 11 9 11 9 1 0 -12
-49 -37 -57 -29 -6 7 8 37 17 37 5 0 12 -5 16 -11z m82 -31 c-2 -6 -10 -14
-16 -16 -7 -2 -10 2 -6 12 7 18 28 22 22 4z m46 -50 c-3 -5 -12 -4 -20 3 -19
16 -18 18 6 12 11 -3 17 -9 14 -15z m-114 -7 c0 -12 -20 -25 -27 -18 -7 7 6
27 18 27 5 0 9 -4 9 -9z m72 -26 c-12 -22 -27 -2 -18 22 5 12 10 13 17 6 7 -7
8 -17 1 -28z m-94 -24 c3 -8 -1 -12 -9 -9 -7 2 -15 10 -17 17 -3 8 1 12 9 9 7
-2 15 -10 17 -17z m-1048 -81 c0 -5 -4 -10 -10 -10 -5 0 -10 5 -10 10 0 6 5
10 10 10 6 0 10 -4 10 -10z m1310 -10 c0 -5 -4 -10 -10 -10 -5 0 -10 5 -10 10
0 6 5 10 10 10 6 0 10 -4 10 -10z m50 -9 c0 -5 -7 -12 -16 -15 -24 -9 -28 -7
-14 9 14 17 30 20 30 6z m-1356 -27 c9 -24 7 -28 -9 -14 -17 14 -20 30 -6 30
5 0 12 -7 15 -16z m1314 -33 c11 -7 11 -9 -1 -14 -9 -3 -18 1 -21 9 -6 16 2
18 22 5z m-1463 -31 c3 -5 15 -10 26 -10 10 0 19 -4 19 -9 0 -13 -63 3 -68 17
-4 14 14 16 23 2z m113 -28 c32 -6 22 -27 -14 -27 -30 0 -44 10 -44 34 0 9 6
11 18 6 9 -4 27 -10 40 -13z m-138 -11 c0 -5 -7 -11 -14 -14 -10 -4 -13 -1 -9
9 6 15 23 19 23 5z m40 0 c0 -5 10 -11 22 -14 12 -4 20 -9 16 -12 -7 -7 -58
16 -58 27 0 4 5 8 10 8 6 0 10 -4 10 -9z m1470 -11 c0 -5 -8 -10 -17 -10 -15
0 -16 2 -3 10 19 12 20 12 20 0z"/>
<path d="M810 1130 c0 -5 5 -10 11 -10 5 0 7 5 4 10 -3 6 -8 10 -11 10 -2 0
-4 -4 -4 -10z"/>
<path d="M830 1100 c0 -5 5 -10 11 -10 5 0 7 5 4 10 -3 6 -8 10 -11 10 -2 0
-4 -4 -4 -10z"/>
<path d="M815 991 c-3 -5 -1 -12 5 -16 5 -3 10 1 10 9 0 18 -6 21 -15 7z"/>
<path d="M844 979 c2 -13 9 -23 15 -21 6 1 11 -3 11 -9 0 -8 5 -8 15 1 8 7 15
18 14 24 0 6 -3 5 -6 -2 -4 -10 -11 -8 -29 9 l-24 23 4 -25z"/>
<path d="M880 840 c0 -5 5 -10 11 -10 5 0 7 5 4 10 -3 6 -8 10 -11 10 -2 0 -4
-4 -4 -10z"/>
<path d="M365 2580 c-3 -6 1 -7 9 -4 18 7 21 14 7 14 -6 0 -13 -4 -16 -10z"/>
<path d="M425 2390 c-3 -5 -1 -10 4 -10 6 0 11 5 11 10 0 6 -2 10 -4 10 -3 0
-8 -4 -11 -10z"/>
<path d="M450 2360 c0 -5 5 -10 11 -10 5 0 7 5 4 10 -3 6 -8 10 -11 10 -2 0
-4 -4 -4 -10z"/>
<path d="M564 2145 c-15 -11 -16 -14 -4 -15 21 0 44 16 33 23 -6 4 -19 0 -29
-8z"/>
<path d="M545 1980 c-3 -5 -2 -10 4 -10 5 0 13 5 16 10 3 6 2 10 -4 10 -5 0
-13 -4 -16 -10z"/>
<path d="M1787 1867 c-3 -9 1 -18 9 -21 16 -6 18 2 5 22 -7 11 -9 11 -14 -1z"/>
<path d="M1783 1808 c2 -13 8 -30 11 -39 5 -11 1 -18 -13 -22 -18 -4 -20 -10
-14 -39 6 -30 5 -32 -10 -19 -9 7 -17 19 -17 26 0 7 -7 19 -17 26 -15 13 -15
12 -5 -7 6 -12 9 -23 7 -26 -6 -6 70 -68 83 -68 5 0 15 -7 23 -16 7 -8 21 -13
32 -10 14 3 17 1 13 -11 -7 -16 10 -43 25 -43 5 0 9 7 9 15 0 8 5 15 10 15 6
0 10 8 10 18 -1 16 -1 16 -11 0 -16 -29 -28 -21 -19 13 7 23 6 28 -3 21 -15
-12 -67 -13 -67 -1 0 5 9 9 19 9 20 0 22 14 7 38 -5 8 -4 18 3 25 6 6 11 18
11 26 0 11 -4 11 -19 -3 -11 -10 -25 -15 -30 -11 -14 8 -14 26 0 23 6 -2 13 9
14 25 2 15 -1 27 -6 27 -5 0 -9 -4 -9 -10 0 -16 -17 -11 -24 7 -4 9 -1 20 6
25 9 5 8 8 -6 8 -14 0 -17 -5 -13 -22z m37 -119 c0 -5 -4 -9 -10 -9 -5 0 -10
7 -10 16 0 8 5 12 10 9 6 -3 10 -10 10 -16z"/>
<path d="M1734 1779 c-8 -14 14 -29 33 -22 18 7 17 20 -3 27 -21 8 -22 8 -30
-5z"/>
<path d="M710 1722 c0 -5 7 -13 16 -16 10 -4 14 -1 12 6 -5 15 -28 23 -28 10z"/>
<path d="M755 1700 c3 -5 8 -10 11 -10 2 0 4 5 4 10 0 6 -5 10 -11 10 -5 0 -7
-4 -4 -10z"/>
<path d="M698 1678 c9 -9 15 -9 24 0 9 9 7 12 -12 12 -19 0 -21 -3 -12 -12z"/>
<path d="M1771 1594 c0 -11 3 -14 6 -6 3 7 2 16 -1 19 -3 4 -6 -2 -5 -13z"/>
<path d="M1810 1606 c0 -2 7 -7 16 -10 8 -3 12 -2 9 4 -6 10 -25 14 -25 6z"/>
<path d="M1800 1579 c0 -5 5 -7 10 -4 6 3 10 8 10 11 0 2 -4 4 -10 4 -5 0 -10
-5 -10 -11z"/>
<path d="M1910 1539 c0 -5 5 -7 10 -4 6 3 10 8 10 11 0 2 -4 4 -10 4 -5 0 -10
-5 -10 -11z"/>
<path d="M1615 1530 c3 -5 8 -10 11 -10 2 0 4 5 4 10 0 6 -5 10 -11 10 -5 0
-7 -4 -4 -10z"/>
<path d="M868 1514 c-28 -14 -38 -34 -18 -34 6 0 10 5 10 10 0 6 5 10 11 10 6
0 17 7 25 15 19 19 7 19 -28 -1z"/>
<path d="M1640 1510 c0 -5 5 -10 10 -10 6 0 10 5 10 10 0 6 -4 10 -10 10 -5 0
-10 -4 -10 -10z"/>
<path d="M793 1494 c-3 -8 -2 -19 3 -24 5 -5 10 1 10 16 2 27 -4 31 -13 8z"/>
<path d="M1940 1500 c-10 -6 -12 -12 -5 -19 7 -7 14 -4 23 9 13 21 6 25 -18
10z"/>
<path d="M1690 1479 c0 -5 5 -7 10 -4 6 3 10 8 10 11 0 2 -4 4 -10 4 -5 0 -10
-5 -10 -11z"/>
<path d="M820 1464 c0 -10 -10 -29 -22 -42 l-23 -24 35 7 c19 5 44 8 55 7 16
-1 15 2 -8 16 -15 9 -25 22 -23 29 3 7 1 15 -4 18 -6 4 -10 -2 -10 -11z"/>
<path d="M1640 1474 c0 -2 9 -8 20 -14 11 -6 20 -7 20 -2 0 6 -9 12 -20 15
-11 3 -20 3 -20 1z"/>
<path d="M1956 1444 c-6 -24 -2 -43 8 -33 11 10 17 59 8 59 -5 0 -13 -12 -16
-26z"/>
<path d="M673 1426 c-6 -8 -9 -17 -6 -20 12 -11 19 -6 20 14 2 23 2 23 -14 6z"/>
<path d="M1620 1420 c-10 -6 -4 -13 22 -26 20 -9 39 -25 41 -35 3 -11 1 -16
-4 -13 -6 3 -17 0 -25 -7 -12 -10 -13 -9 -9 4 4 10 -1 17 -14 22 -12 3 -21 13
-21 21 0 8 -4 14 -10 14 -5 0 -10 -15 -10 -34 0 -35 24 -71 41 -61 5 4 9 -2 9
-11 0 -14 -3 -15 -12 -6 -7 7 -20 12 -31 12 -14 0 -17 -5 -12 -20 4 -14 2 -20
-9 -20 -8 0 -18 5 -21 10 -3 6 -11 10 -17 10 -7 0 -6 -5 2 -15 19 -23 50 -88
44 -94 -3 -3 -9 1 -14 9 -7 11 -10 12 -10 2 0 -10 -4 -9 -16 3 -9 9 -19 13
-22 10 -4 -3 -2 -9 4 -13 6 -4 15 -18 19 -30 7 -23 7 -24 -19 -7 -25 17 -26
17 -19 -1 4 -11 15 -25 25 -32 10 -7 18 -17 18 -22 0 -11 -47 7 -71 27 -8 7
-19 13 -24 13 -4 0 15 -23 44 -50 50 -48 60 -76 23 -63 -14 5 -15 3 -4 -8 16
-18 16 -34 -1 -20 -8 6 -17 8 -20 4 -4 -3 -7 3 -7 15 0 24 -15 36 -32 26 -7
-4 -24 -9 -37 -10 -25 -3 -25 -2 7 22 48 38 42 81 -8 54 -15 -8 -18 -6 -16 15
0 14 6 25 12 25 7 0 15 7 18 16 4 12 1 14 -14 9 -19 -6 -19 -4 5 39 14 25 23
46 20 46 -8 0 -85 -79 -85 -87 0 -3 6 0 14 6 10 9 15 8 19 -3 4 -9 2 -18 -3
-21 -5 -3 -11 -19 -15 -35 -7 -33 -13 -35 -35 -17 -17 14 -27 53 -11 42 6 -3
11 -1 11 4 0 6 -5 11 -10 11 -6 0 -15 10 -20 23 -5 12 -9 16 -9 9 -1 -10 -6
-10 -23 -1 -19 10 -18 7 5 -15 25 -23 27 -29 15 -43 -7 -9 -8 -14 -3 -11 6 4
15 -4 22 -18 11 -23 11 -23 -18 -8 -25 12 -29 13 -29 0 0 -26 12 -46 28 -46
12 0 13 -3 4 -12 -7 -7 -12 -21 -12 -32 0 -18 -1 -18 -18 -3 -17 16 -32 14
-32 -4 0 -5 7 -6 16 -2 14 5 14 2 -2 -22 l-18 -28 22 12 c19 10 23 10 21 -1
-3 -15 18 -68 26 -68 4 0 3 5 -1 12 -4 7 -3 8 4 4 6 -4 8 -14 5 -23 -5 -13 -2
-15 11 -10 12 5 16 2 14 -10 -2 -9 3 -18 10 -20 8 -3 10 2 6 14 -5 17 -5 17 9
1 21 -26 40 -23 31 5 -6 21 -6 21 12 6 27 -23 64 -31 64 -13 0 8 -6 11 -15 8
-9 -4 -15 0 -15 9 0 9 -4 19 -10 22 -6 4 -7 -1 -3 -10 5 -15 3 -15 -15 -4 -11
7 -18 17 -15 22 3 4 7 6 10 3 8 -8 43 13 43 25 0 6 -4 7 -10 4 -5 -3 -10 -1
-10 4 0 14 23 14 36 1 8 -8 21 -5 43 7 20 12 34 14 39 8 8 -12 28 -13 36 -2 3
4 3 5 0 2 -4 -2 -15 0 -25 6 -18 9 -18 11 8 38 18 19 31 26 38 19 7 -6 5 -13
-6 -21 -14 -11 -14 -14 3 -32 16 -16 18 -17 13 -2 -4 10 -2 17 5 17 6 0 8 5 5
10 -3 6 -1 10 6 10 7 0 5 8 -6 20 -15 16 -16 23 -6 33 9 9 13 7 17 -11 4 -12
12 -22 19 -22 7 0 15 -6 18 -12 2 -7 8 -10 12 -5 5 4 4 12 -2 18 -6 6 -9 17
-7 24 3 7 0 16 -7 21 -9 5 -10 2 -6 -9 9 -24 -6 -21 -21 3 -7 11 -8 20 -3 20
5 0 12 15 16 33 3 17 11 42 17 55 9 17 9 25 0 34 -9 9 -7 15 9 24 21 11 25 25
29 107 1 15 4 16 16 6 12 -10 12 -7 -1 17 -8 16 -15 37 -15 46 0 21 -16 32
-25 18 -5 -8 -14 -6 -29 4 -14 8 -28 11 -36 6z m80 -109 c0 -11 -39 -21 -45
-11 -2 4 -2 10 2 14 10 9 43 7 43 -3z m-25 -70 c-3 -6 -11 -11 -16 -11 -5 0
-4 6 3 14 14 16 24 13 13 -3z m-321 -201 c-6 -6 -10 -3 -10 10 0 13 4 16 10
10 7 -7 7 -13 0 -20z m-4 -41 c0 -12 -4 -17 -11 -13 -7 4 -9 0 -5 -14 5 -14 1
-21 -13 -25 -30 -8 -31 15 -2 44 33 33 31 33 31 8z m148 -32 c8 -9 6 -16 -8
-24 -15 -10 -19 -9 -24 3 -11 30 12 45 32 21z"/>
<path d="M1988 1373 c-16 -8 -28 -21 -28 -29 0 -11 4 -12 19 -3 14 9 49 52 39
48 -2 -1 -15 -8 -30 -16z"/>
<path d="M2120 1380 c0 -5 6 -10 14 -10 8 0 18 5 21 10 3 6 -3 10 -14 10 -12
0 -21 -4 -21 -10z"/>
<path d="M1560 1341 c0 -5 5 -13 10 -16 6 -3 10 -2 10 4 0 5 -4 13 -10 16 -5
3 -10 2 -10 -4z"/>
<path d="M1846 1337 c3 -10 9 -15 12 -12 3 3 0 11 -7 18 -10 9 -11 8 -5 -6z"/>
<path d="M1987 1317 c4 -6 0 -8 -10 -4 -12 5 -27 -10 -27 -27 0 -9 43 3 56 16
14 14 14 16 -5 21 -14 3 -19 1 -14 -6z"/>
<path d="M2080 1315 c0 -16 16 -20 24 -6 3 5 -1 11 -9 15 -9 3 -15 0 -15 -9z"/>
<path d="M1301 1297 c2 -1 12 -9 22 -16 15 -12 17 -12 11 3 -3 9 -13 16 -22
16 -8 0 -13 -1 -11 -3z"/>
<path d="M648 1283 c7 -3 16 -2 19 1 4 3 -2 6 -13 5 -11 0 -14 -3 -6 -6z"/>
<path d="M1410 1259 c0 -5 5 -7 10 -4 6 3 10 8 10 11 0 2 -4 4 -10 4 -5 0 -10
-5 -10 -11z"/>
<path d="M1337 1213 c-10 -10 -8 -45 2 -39 11 7 21 46 12 46 -4 0 -11 -3 -14
-7z"/>
<path d="M2300 1211 c0 -5 -7 -17 -16 -25 -14 -15 -14 -16 5 -16 16 0 21 6 21
25 0 14 -2 25 -5 25 -3 0 -5 -4 -5 -9z"/>
<path d="M2098 1193 c7 -3 16 -2 19 1 4 3 -2 6 -13 5 -11 0 -14 -3 -6 -6z"/>
<path d="M1350 1110 c-9 -6 -10 -10 -3 -10 6 0 15 5 18 10 8 12 4 12 -15 0z"/>
<path d="M1715 989 c4 -10 -2 -15 -15 -17 -48 -4 -50 -5 -40 -17 8 -9 6 -14
-5 -19 -8 -3 -15 -12 -15 -21 0 -28 20 -16 35 22 11 25 19 33 24 25 6 -9 11
-9 25 1 16 12 16 14 2 26 -14 12 -16 12 -11 0z"/>
<path d="M1215 960 c-3 -5 -2 -10 4 -10 5 0 13 5 16 10 3 6 2 10 -4 10 -5 0
-13 -4 -16 -10z"/>
<path d="M1206 895 c-11 -8 -18 -15 -15 -16 2 0 11 -2 19 -4 10 -1 16 5 16 16
0 11 0 19 -1 19 0 0 -9 -7 -19 -15z"/>
<path d="M1520 881 c-8 -6 -18 -7 -23 -4 -5 3 -8 0 -5 -8 3 -8 13 -15 24 -17
14 -2 20 3 20 18 0 11 0 20 -1 20 0 0 -7 -4 -15 -9z"/>
<path d="M2536 871 c-3 -5 1 -14 9 -21 13 -10 15 -9 15 9 0 21 -14 28 -24 12z"/>
<path d="M1230 840 c0 -5 5 -10 10 -10 6 0 10 5 10 10 0 6 -4 10 -10 10 -5 0
-10 -4 -10 -10z"/>
</g>
</svg>
